<svg xmlns="http://www.w3.org/2000/svg" viewBox="0 0 512 512" fill="none">
  <rect width="512" height="512" rx="112" fill="#FFFFFF"/>
  <circle cx="256" cy="256" r="224" stroke="#065F46" stroke-width="14"/>
  <circle cx="256" cy="256" r="204" stroke="#10B981" stroke-width="4" stroke-opacity="0.6"/>
  <circle cx="256" cy="256" r="148" stroke="#0D9488" stroke-width="5" stroke-opacity="0.45"/>
  <path d="M224 140H288V224H372V288H288V372H224V288H140V224H224V140Z" stroke="#047857" stroke-width="14" stroke-linejoin="round" fill="#ECFDF5"/>
  <path d="M256 296C256 296 204 260 204 226C204 206 220 192 238 192C249 192 256 199 256 206C256 199 263 192 274 192C292 192 308 206 308 226C308 260 256 296 256 296Z" stroke="#0D9488" stroke-width="10" fill="#FFFFFF"/>
  <path d="M256 296C272 272 292 246 318 226" stroke="#059669" stroke-width="8" stroke-linecap="round"/>
</svg>
